# xmcd
# Copyright (C) 1995-1998 Ti Kan
#
# Track frame offsets:
#       150
#       14760
#       34311
#
# Disc length: 639 seconds
#
# Revision: 0
# Processed by: cddbd v1.5.1PL2 Copyright (c) Steve Scherf et al.
# Submitted via: CD-Transfer v1.0
#
DISCID=22027d03
DTITLE=Bernie Bennings - 
DYEAR=1900
DGENRE=
TTITLE0=You Gave Me A Mountain
TTITLE1=An American Trillogie
TTITLE2=Steamroller Blues
EXTD=
EXTT0=
EXTT1=
EXTT2=
PLAYORDER=
